<svg width="201" height="416" viewBox="0 0 201 416" fill="none" xmlns="http://www.w3.org/2000/svg">
<g opacity="0.1">
<path d="M266.795 401.933L261.068 402.534L250.612 402.575L248.311 402.343L245.307 401.948C229.493 399.858 214.466 392.431 202.828 381.554L200.337 383.814C193.743 389.797 183.384 395.636 174.807 398.481C169.908 400.104 165.08 401.291 159.97 401.963L157.145 402.333L153.668 402.559H145.092L141.61 402.323L138.995 402.02L137.141 401.753C123.311 399.76 110.451 393.833 99.6501 385.036L97.3698 383.11L90.724 376.454L88.8495 374.21L85.6447 369.926C79.754 361.195 75.6145 351.571 73.4729 341.248L72.6871 336.138L72.3533 333.935L72.1016 328.994C71.9989 326.97 71.5213 325.106 72.1324 323.067C72.3687 322.281 72.1273 321.239 72.1119 320.381C57.0383 318.065 43.1768 311.584 31.8164 301.523L24.6776 294.404L21.4986 290.398C14.6371 281.75 9.57837 270.769 7.04128 260.036L5.80869 253.087L5.48513 251.315L5.18726 248.629L5.21293 235.004L5.57758 232.323C6.33768 226.678 7.44701 221.26 9.5835 215.904L11.5454 210.978C14.858 203.454 19.2183 196.742 24.6365 190.574L30.779 184.431C33.2082 182.002 35.8891 180.025 38.9089 178.048C33.6139 169.034 30.1473 159.261 28.8017 148.886C28.7092 148.157 28.5808 147.52 28.5295 146.863L28.2573 143.437V133.808C28.2573 132.662 28.3857 131.517 28.5295 130.367L28.8428 127.917C30.6865 113.552 37.4606 98.6532 47.0954 87.8064L54.6913 80.2054C66.1081 70.0725 81.8494 63.3548 96.9692 61.7935L98.9876 61.583L111.514 61.6446C117.163 61.999 122.525 63.1391 127.933 64.7877C128.898 62.2866 129.885 59.996 130.973 57.6798C131.43 56.7142 131.682 55.7025 132.519 54.9578C132.863 53.6738 133.587 52.6775 134.24 51.5476C136.546 47.552 139.232 43.9774 142.164 40.4646L144.655 37.7683C145.698 36.6384 146.612 35.7396 147.731 34.7022L150.32 32.3038C157.423 26.2692 165.311 21.4672 174.104 18.2368L179.63 16.3879C183.733 15.0167 187.852 14.2411 192.079 13.7841L195.217 13.4451L208.75 13.4297L211.421 13.7995C216.818 14.5442 221.969 15.6381 227.182 17.4253C232.662 19.2999 237.675 21.6059 242.544 24.7387L249.467 29.6588L251.177 31.1379L253.421 33.0587L259.307 39.0214C261.407 41.1476 263.066 43.4844 264.735 45.9393L267.036 49.3135L269.63 53.8587L273.934 63.3651C276.522 62.3225 279.013 61.8295 281.622 61.3775L286.034 60.6123C286.953 61.0026 287.888 60.412 288.694 60.3555L291.94 60.1244L301.04 60.1449L304.014 60.3915L306.525 60.6842C320.854 62.3431 334.459 68.2646 345.588 77.3858L347.103 78.6287L349.245 80.4519L354.391 85.6288L356.543 88.1248L358.577 90.6259C366.008 99.7625 372.495 114.867 373.763 126.597L374.169 130.331L374.385 133.33V141.414L374.164 143.925L373.748 147.926C371.411 164.962 364.365 175.32 364.221 176.101C364.175 176.348 364.39 176.327 364.58 176.476L371.272 181.638L372.782 182.875L378.668 188.756L379.895 190.266L382.479 193.404C389.843 203.069 394.948 214.214 397.203 226.191L397.778 229.236C397.891 229.842 397.932 230.772 398.02 231.398L398.395 234.105L398.631 238.054L398.672 244.715C398.677 245.712 398.261 246.611 398.497 247.689C398.656 248.398 398.256 249.235 398.169 249.877L397.532 254.581C396.623 261.289 394.445 267.58 391.739 273.743L389.263 278.714C386.783 283.701 383.419 288.128 379.762 292.329L377.435 295.005C376.932 295.58 376.054 296.423 375.504 296.9L373.471 298.672C362.418 308.723 348.649 315.266 333.874 317.654C332.769 317.834 333.673 320.243 333.678 320.931L333.719 327.474L333.35 329.225C333.499 330.612 333.36 331.793 333.196 333.226C331.65 346.887 326.55 359.865 318.389 370.923L314.517 375.735L313.397 377.065L307.85 382.571L305.586 384.543C300.439 389.021 294.687 392.657 288.437 395.477L286.747 396.237C281.309 398.687 272.562 401.332 266.79 401.938L266.795 401.933ZM218.631 145.055L218.39 141.666L218.4 132.606L218.641 129.119L218.986 127.126C219.777 119.094 222.38 111.59 225.739 104.308L228.405 99.3363L231.24 94.7859C232.724 92.4029 234.347 90.2716 236.221 88.1556C236.843 87.452 237.505 86.8049 237.896 85.9472L244.428 79.6148C249.348 75.4291 254.428 71.6954 260.262 68.8039C257.299 61.1002 253.231 54.1155 247.69 48.2145C246.56 47.0076 245.738 45.739 244.341 44.8608L241.83 42.4675L237.937 39.4168C235.6 37.5834 233.155 36.1351 230.495 34.7844L228.882 33.9678C223.32 31.1482 217.414 29.4072 211.246 28.5392L208.668 28.1797L205.668 27.9589L197.836 27.9691L195.32 28.154C182.013 29.628 169.661 34.9487 159.585 43.8285L153.925 49.4676C152.179 51.2035 150.833 53.1192 149.447 55.1375C143.448 63.8787 139.437 73.9294 138.384 84.4989C138.312 85.2128 138.071 85.9164 138.071 86.5276V96.794C138.076 97.4257 138.282 98.0831 138.364 98.8484C139.714 110.902 144.522 122.262 152.143 131.615L153.684 133.325L158.347 138.019L159.811 139.277C168.1 146.39 180.092 152.045 190.862 153.509L193.846 153.914L196.352 154.156L205.355 154.104L210.63 153.529C213.598 152.98 216.479 152.363 219.463 151.485L218.996 147.115L218.621 145.055H218.631ZM278.278 175.249L282.295 172.758L284.087 171.736C290.923 167.832 298.447 165.573 306.145 164.083L309.992 163.524L312.642 163.138L316.109 162.902L324.716 162.871C325.518 162.871 326.35 163.292 327.192 163.046C327.844 162.856 328.44 163.318 328.969 163.349C336.221 163.765 344.469 166.369 351.227 169.065L354.021 163.806C356.363 158.588 358.263 153.314 358.988 147.664L359.578 143.073L359.553 131.266L358.833 125.868C356.723 115.185 351.9 105.284 344.731 97.0406L337.695 90.025C328.342 81.931 316.982 76.6566 304.743 75.2185L301.795 74.8744L298.226 74.7614C296.737 74.2376 295.591 74.6639 294.138 74.7512L288.987 75.0696L282.798 76.1122C278.191 77.2215 273.836 78.5825 269.568 80.6111C264.514 83.0095 259.841 85.6802 255.66 89.419L253.062 91.7404C251.721 92.6392 250.745 93.9848 249.636 95.1968C242.641 102.844 238.276 110.692 235.168 120.686C234.367 123.254 233.915 125.775 233.551 128.41L233.171 131.168L233.017 135.718C232.744 136.889 232.667 137.598 233.027 138.789L233.16 142.636L233.458 145.286L233.746 147.14C235.965 161.402 243.078 174.37 253.698 184.092L255.83 185.946L261.346 190.019C262.378 189.475 262.748 188.55 263.456 187.852L268.782 182.598L273.348 178.782L278.278 175.243V175.249ZM134.948 193.44C138.939 191.365 142.529 188.879 145.924 185.9L152.564 179.265C157.294 173.862 160.812 167.74 163.498 161.141C163.719 160.601 163.94 160.247 163.688 159.697C163.724 159.78 154.372 154.274 150.669 150.889L146.807 147.356C143.767 144.572 138.944 139.164 136.88 135.831L133.223 129.91L131.754 127.203L129.7 122.776C127.265 117.527 123.85 105.556 123.773 100.271C123.758 99.2952 123.362 98.3707 123.619 97.2973C123.752 96.7324 123.239 96.0853 123.239 95.5666L123.29 88.207C123.3 87.0514 123.665 86.0191 123.609 84.7198C123.526 82.8606 124.256 80.5803 124.235 78.9677L119.341 77.6632C117.836 77.2626 116.408 76.9339 114.842 76.7798L110.815 76.3741C110.148 76.3073 109.598 76.0197 109.028 76.0248L101.509 76.0608L99.4549 76.3433C92.198 76.9339 85.2852 78.9163 78.7319 81.9927C65.3429 88.2789 54.8505 98.8843 48.6207 112.237L45.6163 120.028L43.8907 126.679L43.4387 129.771C43.2538 131.045 42.9714 132.467 43.0124 133.772C43.0638 135.487 42.1702 137.819 42.73 140.849C42.8892 141.696 42.9149 142.282 42.9714 143.191C43.526 151.721 46.0118 159.821 49.8379 167.427L52.1131 171.299L55.21 175.855L58.199 179.532L64.4544 185.792C71.1772 192.52 85.7885 198.925 95.5157 200.26L97.5341 200.537L100.225 200.815H110.743L113.419 200.46C121.683 199.371 127.599 197.235 134.938 193.424L134.948 193.44ZM243.494 247.53L243.381 243.509L243.042 240.766L243.396 237.582L243.679 231.902L244.156 228.23L245.954 219.93C247.551 213.726 250.037 207.989 253.082 202.304L248.47 198.986L244.932 196.085L237.361 188.396C231.466 181.627 226.91 174.031 223.613 165.593L218.441 166.959L211.369 168.197L208.909 168.551L204.21 168.772C202.048 168.875 199.947 169.219 197.78 168.793L193.902 168.68L190.995 168.387L189.198 168.058L182.927 166.898L177.57 165.532C174.299 174.067 169.959 182.043 163.878 188.792L162.333 190.507L157.192 195.674L155.332 197.281L153.607 198.745L150.51 201.025C156.591 210.645 160.407 221.332 161.911 232.569C162.004 233.273 161.742 233.828 162.363 234.382C162.035 235.471 162.471 236.498 162.476 237.556L162.543 248.947C169.327 249.887 175.598 251.931 181.7 254.607L188.099 257.817L191.802 260.051L194.632 261.931L200.332 266.337C201.139 266.959 201.637 267.806 202.69 268.13C204.528 265.947 206.66 264.278 208.909 262.675L214.384 258.777L220.475 255.259L223.156 253.975C229.648 250.873 236.396 248.798 243.499 247.504L243.494 247.53ZM311.831 269.963C314.861 272.921 317.429 276.167 319.791 279.726L321.476 282.263L324.393 287.219L326.457 291.297C328.029 294.902 329.467 298.462 330.51 302.262C330.653 302.781 330.997 303.089 331.295 303.187C331.67 303.31 332.148 303.068 332.528 302.996C340.021 301.615 346.949 299.083 353.533 295.134C368.206 286.326 377.538 273.722 382.047 257.19L383.285 251.084L383.593 249.117L383.881 246.426L383.829 236.133C382.653 222.005 376.901 208.708 367.251 198.216C366.003 196.86 365.115 195.401 363.394 194.415L361.648 192.746L355.131 187.898C347.206 182.634 338.301 179.172 328.856 178.032L326.144 177.703L321.368 177.539C320.561 177.513 320.038 177.513 319.231 177.539L314.691 177.698L311.805 178.048L308.246 178.674C299.767 180.164 288.91 184.811 282.474 190.353L278.094 194.128L273.682 198.596C269.322 203.013 263.585 212.915 261.613 219.031L260.693 221.892C259.928 224.265 259.332 226.519 258.947 228.959L258.239 233.427L257.961 236.575L257.879 243.724C257.869 244.715 257.936 245.604 258.357 246.477C259.841 246.102 261.048 246.559 262.342 246.703L268.654 247.391C275.818 248.603 282.834 250.416 289.341 253.683L293.157 255.598L295.031 256.672C300.244 259.65 304.908 263.209 309.196 267.39L311.836 269.968L311.831 269.963ZM131.728 285.951C131.913 285.062 132.617 284.8 133.11 284.215C140.747 275.155 145.528 264.18 147.321 252.476L147.665 249.404L147.983 246.4V240.073L147.685 237.274C147.577 236.267 147.459 235.065 147.295 234.084L146.596 229.883C144.979 222.616 142.334 215.755 138.42 209.448C138.24 209.16 138.333 208.79 137.968 208.729C137.778 208.698 137.516 208.595 137.229 208.734C131.631 211.451 125.766 213.105 119.711 214.389L115.217 214.989L112.803 215.369L109.331 215.606H101.206L97.7395 215.369L95.0895 214.989L91.2428 214.424C84.7768 213.233 78.6446 211.256 72.6614 208.482C65.7692 205.288 60.4228 201.708 54.7015 196.839L52.8372 195.253L48.6516 191.031C48.4102 190.789 48.0661 189.803 47.5525 190.091C44.4299 191.827 39.7666 196.007 37.2501 198.755L33.9426 202.376C30.5119 206.7 27.5588 211.281 25.2785 216.356C22.5 222.544 20.4611 228.8 19.9476 235.563L19.7575 238.075V246.164L19.9886 248.891L21.0055 255.157C21.3291 257.139 21.8837 258.916 22.4949 260.806L23.6248 264.309L24.8471 267.287C27.0041 272.536 29.8288 277.312 33.3982 281.745L35.0417 283.783L36.5259 285.53C41.0146 290.414 46.135 294.564 51.9025 297.917L59.4932 301.682C64.2182 304.024 74.9058 306.499 80.1032 306.515L87.8685 306.535L90.3799 306.366C97.3235 305.903 103.903 303.864 110.225 301.096L115.54 298.477C120.198 295.883 124.399 292.9 128.231 289.263L131.723 285.951H131.728ZM217.296 374.482C223.711 379.525 230.716 383.228 238.466 385.477L245.409 387.147L250.771 387.794L253.303 388.092C254.756 388.261 256.441 388.21 257.889 388.081L260.678 387.835C266.204 387.342 271.653 386.33 276.779 384.337L280.723 382.802L287.066 379.576C290.45 377.856 293.419 375.725 296.182 373.218L298.534 371.087C299.839 369.906 300.994 368.812 302.129 367.502L304.533 364.708C312.36 355.222 317.295 343.775 318.615 331.49L318.913 329.682V319.179L318.61 317.392C317.901 309.298 315.313 301.718 311.63 294.548C310.084 291.539 308.431 288.883 306.34 286.274L303.038 282.161L297.26 276.388C288.92 269.013 279.013 264.237 268.099 262.223L263.369 261.592L261.135 261.232H251.557L249.318 261.597C246.329 261.597 238.825 263.441 235.739 264.678L230.644 266.717C225.626 269.095 221.019 271.93 216.669 275.392L214.738 276.927C213.983 277.528 213.043 278.083 212.638 278.997C213.033 279.254 213.295 279.5 213.449 279.726C213.588 279.926 213.372 280.399 213.3 280.712L215.904 284.569C220.958 292.581 224.373 301.368 226.176 310.649L226.792 315.435L227.116 317.444L227.259 321.773C227.547 323.54 227.311 325.322 227.254 327.099L227.126 331.202L226.787 333.452L226.129 338.346L224.204 346.733L221.589 354.242L220.059 357.626L218.487 360.995L215.95 365.448L212.617 370.64C213.752 371.195 214.446 372.253 215.406 373.013L217.286 374.492L217.296 374.482ZM143.52 387.799L147.213 387.922C148.774 388.41 149.966 387.979 151.496 387.912L155.733 387.732L160.643 387.034C171.438 385.031 181.494 380.414 189.855 373.316L191.612 371.827L196.994 366.388C201.041 361.791 204.184 356.83 206.809 351.278C209.433 345.726 210.963 340.257 211.991 334.32L212.55 329.163V319.94C212.319 314.732 211.164 309.966 209.474 305.035C206.916 297.553 203.008 290.845 197.888 284.77L190.687 277.487L188.428 275.792L183.579 272.32L180.257 270.405C174.612 267.154 168.619 264.992 162.204 263.785C161.449 263.641 160.802 263.225 159.991 263.61C156.858 274.986 151.465 285.668 143.664 294.579L137.188 301.132L135.539 302.462L129.412 307.203C119.069 314.331 107.308 319.051 94.8327 320.628L92.0645 320.977L86.6051 321.136L86.677 329.97L87.0057 332.471C87.1393 333.503 87.1957 334.633 87.4217 335.629L89.2295 343.6L90.6059 347.688C94.0264 356.815 99.419 365.078 106.568 371.621L108.663 373.326C111.94 375.997 115.268 378.467 119.063 380.398L122.694 382.247L127.25 384.096L131.682 385.56L138.451 387.147L143.51 387.804L143.52 387.799Z" fill="#D5E8F9"/>
</g>
</svg>
